<svg width="16" height="16" viewBox="0 0 16 16" fill="none" xmlns="http://www.w3.org/2000/svg">
<g clip-path="url(#clip0_163_22428)">
<path d="M6.58536 6.58671C6.38887 6.76981 6.23126 6.99061 6.12195 7.23594C6.01264 7.48127 5.95386 7.74611 5.94912 8.01465C5.94438 8.28319 5.99378 8.54993 6.09437 8.79897C6.19496 9.048 6.34468 9.27423 6.53459 9.46414C6.72451 9.65406 6.95074 9.80378 7.19977 9.90437C7.44881 10.005 7.71555 10.0544 7.98409 10.0496C8.25263 10.0449 8.51747 9.9861 8.7628 9.87679C9.00813 9.76748 9.22893 9.60987 9.41203 9.41337M7.15203 3.38671C7.4329 3.35171 7.71565 3.3339 7.9987 3.33337C12.6654 3.33337 14.6654 8.00004 14.6654 8.00004C14.3673 8.63812 13.9935 9.238 13.552 9.78671M4.40536 4.40671C3.07953 5.30979 2.01861 6.55021 1.33203 8.00004C1.33203 8.00004 3.33203 12.6667 7.9987 12.6667C9.27597 12.6701 10.5259 12.2968 11.592 11.5934M1.33203 1.33337L14.6654 14.6667" stroke="#0F172A" stroke-linecap="round" stroke-linejoin="round"/>
</g>
<defs>
<clipPath id="clip0_163_22428">
<rect width="16" height="16" fill="white"/>
</clipPath>
</defs>
</svg>
